<?xml version="1.0" encoding="UTF-8" standalone="no"?>
<!DOCTYPE svg PUBLIC "-//W3C//DTD SVG 1.1//EN"
 "http://www.w3.org/Graphics/SVG/1.1/DTD/svg11.dtd">
<!-- Generated by graphviz version 2.32.0 (20130802.0446)
 -->
<!-- Title: G Pages: 1 -->
<svg width="118pt" height="44pt"
 viewBox="0.00 0.00 118.00 44.00" xmlns="http://www.w3.org/2000/svg" xmlns:xlink="http://www.w3.org/1999/xlink">
<g id="graph0" class="graph" transform="scale(1 1) rotate(0) translate(4 40)">
<title>G</title>
<polygon fill="white" stroke="white" points="-4,5 -4,-40 115,-40 115,5 -4,5"/>
<!-- APO10011 -->
<g id="node1" class="node"><title>APO10011</title>
<path fill="yellow" stroke="blue" d="M98.25,-36C98.25,-36 11.75,-36 11.75,-36 5.75,-36 -0.25,-30 -0.25,-24 -0.25,-24 -0.25,-12 -0.25,-12 -0.25,-6 5.75,-0 11.75,-0 11.75,-0 98.25,-0 98.25,-0 104.25,-0 110.25,-6 110.25,-12 110.25,-12 110.25,-24 110.25,-24 110.25,-30 104.25,-36 98.25,-36"/>
<text text-anchor="middle" x="55" y="-12.4" font-family="Times New Roman,serif" font-size="22.00">APO10011</text>
</g>
</g>
</svg>
